<svg width="64" height="64" viewBox="0 0 256 256" fill="none" xmlns="http://www.w3.org/2000/svg">
  <defs>
    <linearGradient id="rim" x1="40" y1="36" x2="214" y2="220" gradientUnits="userSpaceOnUse">
      <stop stop-color="#FB923C" />
      <stop offset="0.5" stop-color="#F8FAFC" />
      <stop offset="1" stop-color="#2563EB" />
    </linearGradient>
    <linearGradient id="orbit" x1="72" y1="64" x2="184" y2="188" gradientUnits="userSpaceOnUse">
      <stop stop-color="#FDBA74" />
      <stop offset="0.4" stop-color="#60A5FA" />
      <stop offset="1" stop-color="#38BDF8" />
    </linearGradient>
  </defs>
  <circle cx="128" cy="128" r="108" fill="url(#rim)" />
  <circle cx="128" cy="128" r="90" fill="#081224" />
  <path d="M88 112C101.5 87 128.5 75 154.5 82.5C180.5 90 196 114 193 139.5C190 165 169 186.5 141.5 191.5C114 196.5 88 184.5 75.5 161C63 137.5 66.5 113 88 112Z" stroke="url(#orbit)" stroke-width="16" stroke-linecap="round" stroke-linejoin="round" />
  <circle cx="90" cy="112" r="10" fill="#FB923C" stroke="#0F172A" stroke-width="5" />
  <circle cx="180" cy="104" r="10" fill="#60A5FA" stroke="#0F172A" stroke-width="5" />
  <circle cx="142" cy="192" r="10" fill="#38BDF8" stroke="#0F172A" stroke-width="5" />
  <path d="M128 99C117.507 99 109 107.507 109 118C109 125.432 113.266 131.867 119.472 135.017V158C119.472 160.761 121.711 163 124.472 163H131.528C134.289 163 136.528 160.761 136.528 158V135.017C142.734 131.867 147 125.432 147 118C147 107.507 138.493 99 128 99Z" fill="#F8FAFC" />
  <path d="M128 112.5C124.41 112.5 121.5 115.41 121.5 119C121.5 122.59 124.41 125.5 128 125.5C131.59 125.5 134.5 122.59 134.5 119C134.5 115.41 131.59 112.5 128 112.5Z" fill="#0F172A" />
</svg>
