<svg width="720" height="180" viewBox="0 0 720 180" fill="none" xmlns="http://www.w3.org/2000/svg">
  <defs>
    <linearGradient id="kf-rim-lockup-dark" x1="40" y1="36" x2="214" y2="220" gradientUnits="userSpaceOnUse">
      <stop stop-color="#FB923C" />
      <stop offset="0.5" stop-color="#F8FAFC" />
      <stop offset="1" stop-color="#2563EB" />
    </linearGradient>
    <linearGradient id="kf-orbit-lockup-dark" x1="72" y1="64" x2="184" y2="188" gradientUnits="userSpaceOnUse">
      <stop stop-color="#FDBA74" />
      <stop offset="0.4" stop-color="#60A5FA" />
      <stop offset="1" stop-color="#38BDF8" />
    </linearGradient>
    <radialGradient id="kf-core-lockup-dark" cx="0" cy="0" r="1" gradientUnits="userSpaceOnUse" gradientTransform="translate(104 82) rotate(52.6) scale(176.451)">
      <stop stop-color="#0F172A" />
      <stop offset="1" stop-color="#020617" />
    </radialGradient>
  </defs>
  <rect width="720" height="180" rx="28" fill="#020617" />
  <g transform="translate(24 18)">
    <circle cx="72" cy="72" r="54" fill="url(#kf-rim-lockup-dark)" />
    <circle cx="72" cy="72" r="47" fill="url(#kf-core-lockup-dark)" />
    <path d="M50 63C57.5938 48.9375 72.7812 42.1875 87.4062 46.4062C102.031 50.625 110.75 64.125 109.062 78.4688C107.375 92.8125 95.5625 104.562 80.0938 107.344C64.625 110.125 50 103.375 42.9688 90.1562C35.9375 76.9375 37.9062 63.5625 50 63Z" stroke="url(#kf-orbit-lockup-dark)" stroke-width="9" stroke-linecap="round" stroke-linejoin="round" />
    <circle cx="51" cy="63" r="6.5" fill="#FB923C" stroke="#0F172A" stroke-width="3" />
    <circle cx="102" cy="58.5" r="6.5" fill="#60A5FA" stroke="#0F172A" stroke-width="3" />
    <circle cx="80.5" cy="107.5" r="6.5" fill="#38BDF8" stroke="#0F172A" stroke-width="3" />
    <path d="M72 55.5C66.0049 55.5 61.125 60.3799 61.125 66.375C61.125 70.6186 63.5609 74.3011 67.1063 76.101V89.7969C67.1063 91.3749 68.3876 92.6562 69.9656 92.6562H74.0344C75.6124 92.6562 76.8937 91.3749 76.8937 89.7969V76.101C80.4391 74.3011 82.875 70.6186 82.875 66.375C82.875 60.3799 77.9951 55.5 72 55.5Z" fill="#F8FAFC" />
    <path d="M72 63.2188C69.9483 63.2188 68.2812 64.8858 68.2812 66.9375C68.2812 68.9892 69.9483 70.6562 72 70.6562C74.0517 70.6562 75.7188 68.9892 75.7188 66.9375C75.7188 64.8858 74.0517 63.2188 72 63.2188Z" fill="#0F172A" />
  </g>
  <text x="190" y="78" fill="#F8FAFC" font-family="Inter, ui-sans-serif, system-ui, -apple-system, BlinkMacSystemFont, 'Segoe UI', sans-serif" font-size="42" font-weight="800" letter-spacing="-0.03em">
    Keycloak Fluent
  </text>
  <text x="190" y="116" fill="#CBD5E1" font-family="Inter, ui-sans-serif, system-ui, -apple-system, BlinkMacSystemFont, 'Segoe UI', sans-serif" font-size="19" font-weight="500">
    Fluent Keycloak admin automation
  </text>
</svg>
