<svg width="256" height="256" viewBox="0 0 256 256" fill="none" xmlns="http://www.w3.org/2000/svg">
  <defs>
    <linearGradient id="kf-rim" x1="40" y1="36" x2="214" y2="220" gradientUnits="userSpaceOnUse">
      <stop stop-color="#FB923C" />
      <stop offset="0.5" stop-color="#F8FAFC" />
      <stop offset="1" stop-color="#2563EB" />
    </linearGradient>
    <linearGradient id="kf-orbit" x1="72" y1="64" x2="184" y2="188" gradientUnits="userSpaceOnUse">
      <stop stop-color="#FDBA74" />
      <stop offset="0.4" stop-color="#60A5FA" />
      <stop offset="1" stop-color="#38BDF8" />
    </linearGradient>
    <radialGradient id="kf-core" cx="0" cy="0" r="1" gradientUnits="userSpaceOnUse" gradientTransform="translate(104 82) rotate(52.6) scale(176.451)">
      <stop stop-color="#0F172A" />
      <stop offset="1" stop-color="#020617" />
    </radialGradient>
    <filter id="kf-shadow" x="18" y="18" width="220" height="220" filterUnits="userSpaceOnUse" color-interpolation-filters="sRGB">
      <feFlood flood-opacity="0" result="BackgroundImageFix" />
      <feColorMatrix in="SourceAlpha" type="matrix" values="0 0 0 0 0 0 0 0 0 0 0 0 0 0 0 0 0 0 127 0" result="hardAlpha" />
      <feOffset dy="10" />
      <feGaussianBlur stdDeviation="10" />
      <feComposite in2="hardAlpha" operator="out" />
      <feColorMatrix type="matrix" values="0 0 0 0 0.00784314 0 0 0 0 0.0901961 0 0 0 0 0.235294 0 0 0 0.4 0" />
      <feBlend mode="normal" in2="BackgroundImageFix" result="effect1_dropShadow_1_1" />
      <feBlend mode="normal" in="SourceGraphic" in2="effect1_dropShadow_1_1" result="shape" />
    </filter>
  </defs>
  <g filter="url(#kf-shadow)">
    <circle cx="128" cy="118" r="96" fill="url(#kf-rim)" />
    <circle cx="128" cy="118" r="84" fill="url(#kf-core)" />
    <path d="M88 102C101.5 77 128.5 65 154.5 72.5C180.5 80 196 104 193 129.5C190 155 169 176.5 141.5 181.5C114 186.5 88 174.5 75.5 151C63 127.5 66.5 103 88 102Z" stroke="url(#kf-orbit)" stroke-width="16" stroke-linecap="round" stroke-linejoin="round" />
    <circle cx="90" cy="102" r="11" fill="#FB923C" stroke="#0F172A" stroke-width="5" />
    <circle cx="180" cy="94" r="11" fill="#60A5FA" stroke="#0F172A" stroke-width="5" />
    <circle cx="142" cy="182" r="11" fill="#38BDF8" stroke="#0F172A" stroke-width="5" />
    <path d="M128 89C117.507 89 109 97.5066 109 108C109 115.432 113.266 121.867 119.472 125.017V149C119.472 151.761 121.711 154 124.472 154H131.528C134.289 154 136.528 151.761 136.528 149V125.017C142.734 121.867 147 115.432 147 108C147 97.5066 138.493 89 128 89Z" fill="#F8FAFC" />
    <path d="M128 102.5C124.41 102.5 121.5 105.41 121.5 109C121.5 112.59 124.41 115.5 128 115.5C131.59 115.5 134.5 112.59 134.5 109C134.5 105.41 131.59 102.5 128 102.5Z" fill="#0F172A" />
  </g>
</svg>
